<svg width="37" height="23" viewBox="0 0 37 23" fill="none" xmlns="http://www.w3.org/2000/svg">
<path d="M9.16 22.3C6.14 22.3 3.89 21.55 2.41 20.05C0.95 18.53 0.22 16.29 0.22 13.33V0.849999H4.09V13.3C4.09 15.18 4.49 16.6 5.29 17.56C6.11 18.52 7.4 19 9.16 19C10.84 19 12.1 18.52 12.94 17.56C13.8 16.6 14.23 15.18 14.23 13.3V0.849999H18.04V13.33C18.04 16.29 17.29 18.53 15.79 20.05C14.31 21.55 12.1 22.3 9.16 22.3Z" fill="#2C3E50"/>
<path d="M22.547 22V0.849999H26.417V18.73H36.377V22H22.547Z" fill="#E67E22"/>
</svg>
