<svg width="154" height="24" viewBox="0 0 154 24" fill="none" xmlns="http://www.w3.org/2000/svg">
<path d="M9.13 23.27C6.19 23.27 3.96 22.52 2.44 21.02C0.94 19.5 0.19 17.28 0.19 14.36V1.64H4V14.57C4 16.41 4.43 17.81 5.29 18.77C6.15 19.71 7.43 20.18 9.13 20.18C10.79 20.18 12.05 19.7 12.91 18.74C13.79 17.78 14.23 16.39 14.23 14.57V1.64H18.04V14.36C18.04 17.26 17.28 19.47 15.76 20.99C14.24 22.51 12.03 23.27 9.13 23.27ZM30.407 7.49C30.987 7.49 31.487 7.57 31.907 7.73L31.877 11.15C31.237 10.89 30.577 10.76 29.897 10.76C28.617 10.76 27.637 11.13 26.957 11.87C26.297 12.61 25.967 13.59 25.967 14.81V23H22.247V12.14C22.247 10.54 22.167 9.11 22.007 7.85H25.517L25.817 10.52C26.197 9.54 26.797 8.79 27.617 8.27C28.437 7.75 29.367 7.49 30.407 7.49ZM42.6351 7.46C43.9551 7.46 45.1151 7.79 46.1151 8.45C47.1351 9.09 47.9251 10 48.4851 11.18C49.0451 12.36 49.3251 13.73 49.3251 15.29C49.3251 16.85 49.0351 18.24 48.4551 19.46C47.8951 20.66 47.1051 21.59 46.0851 22.25C45.0851 22.91 43.9351 23.24 42.6351 23.24C41.5151 23.24 40.5151 23 39.6351 22.52C38.7751 22.04 38.1251 21.37 37.6851 20.51V23H33.9951V0.919998H37.7151V10.13C38.1751 9.29 38.8351 8.64 39.6951 8.18C40.5551 7.7 41.5351 7.46 42.6351 7.46ZM41.6451 20.3C42.8851 20.3 43.8451 19.86 44.5251 18.98C45.2051 18.1 45.5451 16.87 45.5451 15.29C45.5451 13.73 45.2051 12.53 44.5251 11.69C43.8451 10.83 42.8751 10.4 41.6151 10.4C40.3551 10.4 39.3851 10.83 38.7051 11.69C38.0251 12.55 37.6851 13.77 37.6851 15.35C37.6851 16.95 38.0251 18.18 38.7051 19.04C39.3851 19.88 40.3651 20.3 41.6451 20.3ZM67.0886 7.85V23H63.3986V20.57C62.9386 21.41 62.2786 22.07 61.4186 22.55C60.5586 23.01 59.5786 23.24 58.4786 23.24C57.1586 23.24 55.9886 22.92 54.9686 22.28C53.9486 21.64 53.1586 20.73 52.5986 19.55C52.0386 18.37 51.7586 17 51.7586 15.44C51.7586 13.88 52.0386 12.5 52.5986 11.3C53.1786 10.08 53.9786 9.14 54.9986 8.48C56.0186 7.8 57.1786 7.46 58.4786 7.46C59.5786 7.46 60.5586 7.7 61.4186 8.18C62.2786 8.64 62.9386 9.29 63.3986 10.13V7.85H67.0886ZM59.4986 20.3C60.7386 20.3 61.6986 19.87 62.3786 19.01C63.0586 18.15 63.3986 16.94 63.3986 15.38C63.3986 13.78 63.0586 12.55 62.3786 11.69C61.6986 10.83 60.7286 10.4 59.4686 10.4C58.2286 10.4 57.2586 10.85 56.5586 11.75C55.8786 12.63 55.5386 13.86 55.5386 15.44C55.5386 17 55.8786 18.2 56.5586 19.04C57.2586 19.88 58.2386 20.3 59.4986 20.3ZM79.8428 7.46C83.4628 7.46 85.2728 9.54 85.2728 13.7V23H81.5228V13.88C81.5228 12.68 81.2928 11.81 80.8328 11.27C80.3728 10.71 79.6628 10.43 78.7028 10.43C77.5628 10.43 76.6428 10.8 75.9428 11.54C75.2428 12.26 74.8928 13.22 74.8928 14.42V23H71.1728V12.14C71.1728 10.54 71.0928 9.11 70.9328 7.85H74.4428L74.7128 10.34C75.2328 9.42 75.9328 8.71 76.8128 8.21C77.7128 7.71 78.7228 7.46 79.8428 7.46Z" fill="#2C3E50"/>
<path d="M89.519 1.64H93.389V19.82H103.379V23H89.519V1.64ZM119.543 7.85V23H115.883V20.66C115.403 21.5 114.763 22.14 113.963 22.58C113.163 23.02 112.243 23.24 111.203 23.24C107.503 23.24 105.653 21.16 105.653 17V7.85H109.373V17.03C109.373 18.13 109.593 18.94 110.033 19.46C110.493 19.98 111.193 20.24 112.133 20.24C113.233 20.24 114.113 19.88 114.773 19.16C115.433 18.44 115.763 17.48 115.763 16.28V7.85H119.543ZM138.344 23H133.874L129.794 17.87L125.714 23H121.274L127.634 15.2L121.664 7.85H126.104L129.794 12.56L133.484 7.85H137.954L131.984 15.2L138.344 23ZM153.046 15.62H142.606C142.686 17.24 143.086 18.44 143.806 19.22C144.546 19.98 145.636 20.36 147.076 20.36C148.736 20.36 150.276 19.82 151.696 18.74L152.776 21.32C152.056 21.9 151.166 22.37 150.106 22.73C149.066 23.07 148.006 23.24 146.926 23.24C144.446 23.24 142.496 22.54 141.076 21.14C139.656 19.74 138.946 17.82 138.946 15.38C138.946 13.84 139.256 12.47 139.876 11.27C140.496 10.07 141.366 9.14 142.486 8.48C143.606 7.8 144.876 7.46 146.296 7.46C148.376 7.46 150.016 8.14 151.216 9.5C152.436 10.84 153.046 12.69 153.046 15.05V15.62ZM146.386 10.16C145.386 10.16 144.566 10.46 143.926 11.06C143.306 11.64 142.906 12.49 142.726 13.61H149.776C149.656 12.47 149.306 11.61 148.726 11.03C148.166 10.45 147.386 10.16 146.386 10.16Z" fill="#E67E22"/>
</svg>
