<svg width="16" height="16" viewBox="0 0 16 16" fill="none" xmlns="http://www.w3.org/2000/svg">
<path d="M12.4726 6.47357C12.4106 6.41108 12.3368 6.36148 12.2556 6.32764C12.1744 6.29379 12.0872 6.27637 11.9992 6.27637C11.9112 6.27637 11.8241 6.29379 11.7428 6.32764C11.6616 6.36148 11.5879 6.41108 11.5259 6.47357L8.47256 9.5269C8.41058 9.58939 8.33685 9.63898 8.25561 9.67283C8.17437 9.70667 8.08723 9.7241 7.99923 9.7241C7.91122 9.7241 7.82408 9.70667 7.74284 9.67283C7.6616 9.63898 7.58787 9.58939 7.52589 9.5269L4.47256 6.47357C4.41058 6.41108 4.33685 6.36148 4.25561 6.32764C4.17437 6.29379 4.08723 6.27637 3.99923 6.27637C3.91122 6.27637 3.82408 6.29379 3.74284 6.32764C3.6616 6.36148 3.58787 6.41108 3.52589 6.47357C3.40173 6.59847 3.33203 6.76744 3.33203 6.94357C3.33203 7.11969 3.40173 7.28866 3.52589 7.41357L6.58589 10.4736C6.96089 10.8481 7.46922 11.0585 7.99923 11.0585C8.52923 11.0585 9.03756 10.8481 9.41256 10.4736L12.4726 7.41357C12.5967 7.28866 12.6664 7.11969 12.6664 6.94357C12.6664 6.76744 12.5967 6.59847 12.4726 6.47357Z" fill="#15191D"/>
</svg>
