<svg width="16" height="16" viewBox="0 0 16 16" fill="none" xmlns="http://www.w3.org/2000/svg">
<path d="M6.47259 3.52671C6.4101 3.58869 6.36051 3.66242 6.32666 3.74366C6.29282 3.8249 6.27539 3.91204 6.27539 4.00004C6.27539 4.08805 6.29282 4.17519 6.32666 4.25643C6.36051 4.33767 6.4101 4.4114 6.47259 4.47338L9.52592 7.52671C9.58841 7.58868 9.638 7.66242 9.67185 7.74366C9.7057 7.8249 9.72312 7.91203 9.72312 8.00004C9.72312 8.08805 9.7057 8.17519 9.67185 8.25643C9.638 8.33767 9.58841 8.4114 9.52592 8.47338L6.47259 11.5267C6.4101 11.5887 6.36051 11.6624 6.32666 11.7437C6.29282 11.8249 6.27539 11.912 6.27539 12C6.27539 12.088 6.29282 12.1752 6.32666 12.2564C6.36051 12.3377 6.4101 12.4114 6.47259 12.4734C6.5975 12.5975 6.76647 12.6672 6.94259 12.6672C7.11871 12.6672 7.28768 12.5975 7.41259 12.4734L10.4726 9.41338C10.8471 9.03837 11.0575 8.53004 11.0575 8.00004C11.0575 7.47004 10.8471 6.96171 10.4726 6.58671L7.41259 3.52671C7.28768 3.40254 7.11871 3.33285 6.94259 3.33285C6.76647 3.33285 6.5975 3.40254 6.47259 3.52671Z" fill="#0D0E10"/>
</svg>
