<svg width="16" height="17" viewBox="0 0 16 17" fill="none" xmlns="http://www.w3.org/2000/svg">
<path d="M12.4726 5.97332C12.4106 5.91084 12.3368 5.86124 12.2556 5.82739C12.1744 5.79355 12.0872 5.77612 11.9992 5.77612C11.9112 5.77612 11.8241 5.79355 11.7428 5.82739C11.6616 5.86124 11.5879 5.91084 11.5259 5.97332L8.47256 9.02666C8.41058 9.08914 8.33685 9.13874 8.25561 9.17258C8.17437 9.20643 8.08723 9.22385 7.99923 9.22385C7.91122 9.22385 7.82408 9.20643 7.74284 9.17258C7.6616 9.13874 7.58787 9.08914 7.52589 9.02666L4.47256 5.97332C4.41058 5.91084 4.33685 5.86124 4.25561 5.82739C4.17437 5.79355 4.08723 5.77612 3.99923 5.77612C3.91122 5.77612 3.82408 5.79355 3.74284 5.82739C3.6616 5.86124 3.58787 5.91084 3.52589 5.97332C3.40173 6.09823 3.33203 6.2672 3.33203 6.44332C3.33203 6.61945 3.40173 6.78841 3.52589 6.91332L6.58589 9.97332C6.96089 10.3479 7.46922 10.5582 7.99923 10.5582C8.52923 10.5582 9.03756 10.3479 9.41256 9.97332L12.4726 6.91332C12.5967 6.78841 12.6664 6.61945 12.6664 6.44332C12.6664 6.2672 12.5967 6.09823 12.4726 5.97332Z" fill="white"/>
</svg>
